# xmcd
#
# Track frame offsets:
# 150
# 24605
# 41781
# 68560
# 98685
# 126433
# 145934
# 176415
# 212963
# 234852
# 258992
# 278055
# 304794
# 335287
#
# Disc length: 4768 seconds
#
#
# Revision: 0
# Processed by: cddbd v1.5.2PL0 Copyright (c) Steve Scherf et al.
# Submitted via: FreeRIP 2.96 
#
DISCID=c5129e0e
DTITLE=David Baldacci - Die Sammler CD4v6
DYEAR=2008
DGENRE=Speech
TTITLE0=32 Die Sammler
TTITLE1=33 Die Sammler
TTITLE2=34 Die Sammler
TTITLE3=35 Die Sammler
TTITLE4=36 Die Sammler
TTITLE5=37 Die Sammler
TTITLE6=38 Die Sammler
TTITLE7=39 Die Sammler
TTITLE8=40 Die Sammler
TTITLE9=41 Die Sammler
TTITLE10=42 Die Sammler
TTITLE11=43 Die Sammler
TTITLE12=44 Die Sammler
TTITLE13=45 Die Sammler
EXTD=gelesen von K.Dieter Klebsch
EXTT0=
EXTT1=
EXTT2=
EXTT3=
EXTT4=
EXTT5=
EXTT6=
EXTT7=
EXTT8=
EXTT9=
EXTT10=
EXTT11=
EXTT12=
EXTT13=
PLAYORDER=
